<?xml version="1.0" encoding="iso-8859-1"?>
<!-- Generator: Adobe Illustrator 19.0.0, SVG Export Plug-In . SVG Version: 6.00 Build 0)  -->
<svg version="1.1" id="Layer_1" xmlns="http://www.w3.org/2000/svg" xmlns:xlink="http://www.w3.org/1999/xlink" x="0px" y="0px"
	 viewBox="0 0 512 512" style="enable-background:new 0 0 512 512;" xml:space="preserve">
<g>
	<g>
		<path d="M0,60.952v390.095h512V60.952H0z M384,134.095h36.571v48.762H384V134.095z M188.952,134.095h36.571v48.762h-36.571
			V134.095z M91.429,134.095H128v85.333H91.429V134.095z M128,377.905H91.429v-60.952H128V377.905z M126.956,285.429
			c-4.606,4.606-10.729,7.142-17.242,7.142c-13.442,0-24.38-10.937-24.38-24.381c0-13.444,10.937-24.381,24.38-24.381
			c13.444,0,24.381,10.937,24.381,24.381C134.1,274.695,131.565,280.82,126.956,285.429z M225.524,377.905h-36.571v-97.524h36.571
			V377.905z M224.48,248.858c-4.606,4.606-10.729,7.142-17.242,7.142c-13.442,0-24.38-10.937-24.38-24.381
			s10.937-24.381,24.38-24.381c13.444,0,24.381,10.937,24.381,24.381C231.624,238.124,229.088,244.248,224.48,248.858z
			 M323.048,377.905h-36.571V213.333h36.571V377.905z M322.004,181.81c-4.606,4.606-10.729,7.142-17.242,7.142
			c-13.442,0-24.38-10.937-24.38-24.381c0-13.444,10.937-24.381,24.38-24.381c13.444,0,24.381,10.937,24.381,24.381
			C329.148,171.076,326.612,177.201,322.004,181.81z M420.571,377.905H384v-97.524h36.571V377.905z M419.528,248.859
			c-4.607,4.606-10.729,7.141-17.242,7.141c-13.442,0-24.38-10.937-24.38-24.381c0-13.442,10.935-24.379,24.375-24.379
			c13.45,0,24.386,10.936,24.386,24.379C426.672,238.124,424.136,244.25,419.528,248.859z"/>
	</g>
</g>
<g>
</g>
<g>
</g>
<g>
</g>
<g>
</g>
<g>
</g>
<g>
</g>
<g>
</g>
<g>
</g>
<g>
</g>
<g>
</g>
<g>
</g>
<g>
</g>
<g>
</g>
<g>
</g>
<g>
</g>
</svg>
